<svg width="1213" height="653" viewBox="0 0 1213 653" fill="none" xmlns="http://www.w3.org/2000/svg">
<path d="M138.688 526.924L143.215 526.932L144.604 528.925L143.76 530.057L145.47 531.249L145.336 532.949L144.52 533.595L145.623 534.802L144.932 535.928L145.229 536.664L144.325 538.795L140.549 537.379L139.626 537.46L138.182 535.727L137.714 535.798L137.356 533.212L136.412 533.391L136.851 531.318L139.626 530.234L138.688 526.924Z" fill="#3F3D56"/>
<path fill-rule="evenodd" clip-rule="evenodd" d="M87.2327 567.075L87.1327 567.996L79.3609 591.351C79.3609 591.351 84.9973 602.02 85.0327 609.365C85.0498 612.913 83.7723 618.371 83.7723 618.371L79.3609 624.376C79.3609 624.376 72.4837 622.654 68.0172 622.875C64.7635 623.036 59.8245 624.376 59.8245 624.376L56.7544 622.875L56.0433 625.577C56.0433 625.577 53.1155 626.411 51.6319 625.577C50.4573 624.916 49.593 622.875 49.593 622.875L44.4031 627.979L43.4392 635.785C43.4392 635.785 40.561 639.736 37.7674 639.988C34.5728 640.276 30.8352 635.785 30.8352 635.785L31.4654 625.577L28.9446 617.771C28.9446 617.771 30.2702 612.005 33.356 611.166C34.6309 610.819 36.751 611.166 36.751 611.166C36.751 611.166 34.3176 603.536 34.6164 598.556C34.8924 593.957 37.7674 587.148 37.7674 587.148C37.7674 587.148 37.934 582.721 38.3976 579.942C39.1586 575.38 42.809 569.134 42.809 569.134V563.73H28.3144C28.3144 563.73 25.6347 566.825 24.5331 569.134C23.5857 571.12 23.3245 573.577 23.1235 575.468C22.994 576.687 22.8895 577.67 22.6425 578.141C22.0123 579.342 19.4915 578.741 19.4915 578.741C19.4915 578.741 20.7519 585.346 20.1217 587.148C19.4915 588.949 14.4499 591.351 14.4499 591.351L11.614 587.148C11.614 587.148 9.48035 584.777 8.77804 582.944C7.68089 580.081 8.77804 575.138 8.77804 575.138C8.77804 575.138 4.99682 574.538 6.25723 572.136C7.51764 569.734 12.5593 563.73 12.5593 563.73C12.5593 563.73 19.4915 551.72 22.0123 548.718C24.5331 545.716 40.9184 542.713 40.9184 542.713C40.9184 542.713 43.2379 538.57 45.3299 536.108C47.4218 533.646 51.6319 530.104 51.6319 530.104L89.4441 539.111V546.917C89.4441 546.917 89.5118 546.971 89.6373 547.075H115.647C115.647 547.075 116.09 545.474 117.422 543.782C118.754 542.09 127.632 536.501 127.632 536.501L129.408 532.694C129.408 532.694 132.959 528.465 133.847 528.465H140.062V530.58L135.623 531.426L137.398 538.616L132.515 541.154C132.515 541.154 126.744 558.918 125.413 560.187C124.081 561.456 121.861 561.969 121.861 561.969L87.2327 567.075ZM59.6682 601.44L57.6768 602.761L57.0466 607.504L62.7184 606.964L61.458 602.761L59.6682 601.44Z" fill="#3F3D56"/>
<path d="M98.0098 522.897C98.0098 536.825 88.5567 546.916 75.9527 546.916C65.2392 546.916 47.5935 535.024 47.5935 521.096C47.5935 507.167 56.9231 497.678 71.5412 497.678C86.1594 497.678 98.0098 508.969 98.0098 522.897Z" fill="#3F3D56"/>
<path d="M70.3297 505.959C77.732 502.64 91.2265 504.553 91.2265 504.553C91.2265 504.553 96.9583 511.75 97.6668 517.592C98.1471 521.552 97.6668 527.947 97.6668 527.947C97.6668 527.947 94.7631 532.257 93.3065 534.147C91.3253 536.718 86.9671 539.644 86.9671 539.644C86.9671 539.644 78.8532 541.614 73.6843 540.954C68.3344 540.272 62.7182 536.107 62.7182 536.107C62.7182 536.107 57.7799 531.342 56.8123 527.947C55.9964 525.085 55.1557 517.592 55.1557 517.592C55.1557 517.592 62.9273 509.278 70.3297 505.959Z" fill="#3F3D56"/>
<path d="M148.453 526.922L152.98 526.93L154.37 528.923L153.526 530.055L155.236 531.247L155.101 532.947L154.286 533.593L155.389 534.8L154.698 535.926L154.995 536.662L154.091 538.794L150.315 537.377L149.392 537.459L147.948 535.725L147.48 535.796L147.122 533.211L146.178 533.389L146.617 531.316L149.392 530.232L148.453 526.922Z" fill="#E33D02"/>
<path fill-rule="evenodd" clip-rule="evenodd" d="M96.9986 567.073L96.8986 567.994L89.1267 591.349C89.1267 591.349 94.7632 602.018 94.7986 609.363C94.8157 612.911 93.5382 618.37 93.5382 618.37L89.1267 624.374C89.1267 624.374 82.2495 622.652 77.7831 622.873C74.5294 623.034 69.5904 624.374 69.5904 624.374L66.5202 622.873L65.8092 625.575C65.8092 625.575 62.8814 626.409 61.3978 625.575C60.2231 624.914 59.3589 622.873 59.3589 622.873L54.169 627.977L53.2051 635.783C53.2051 635.783 50.3269 639.734 47.5333 639.986C44.3387 640.274 40.601 635.783 40.601 635.783L41.2312 625.575L38.7104 617.769C38.7104 617.769 40.0361 612.003 43.1219 611.164C44.3968 610.817 46.5168 611.164 46.5168 611.164C46.5168 611.164 44.0835 603.534 44.3823 598.554C44.6583 593.955 47.5333 587.146 47.5333 587.146C47.5333 587.146 47.6999 582.719 48.1635 579.94C48.9244 575.378 52.5749 569.132 52.5749 569.132V563.728H38.0802C38.0802 563.728 35.4006 566.823 34.299 569.132C33.3515 571.118 33.0903 573.575 32.8893 575.466C32.7598 576.685 32.6553 577.668 32.4084 578.139C31.7782 579.34 29.2574 578.739 29.2574 578.739C29.2574 578.739 30.5178 585.344 29.8876 587.146C29.2574 588.947 24.2157 591.349 24.2157 591.349L21.3798 587.146C21.3798 587.146 19.2462 584.775 18.5439 582.942C17.4468 580.079 18.5439 575.136 18.5439 575.136C18.5439 575.136 14.7627 574.536 16.0231 572.134C17.2835 569.732 22.3251 563.728 22.3251 563.728C22.3251 563.728 29.2574 551.718 31.7782 548.716C34.299 545.714 50.6843 542.711 50.6843 542.711C50.6843 542.711 53.0038 538.568 55.0957 536.106C57.1877 533.644 61.3978 530.102 61.3978 530.102L99.21 539.109V546.915C99.21 546.915 99.2777 546.969 99.4031 547.073H125.412C125.412 547.073 125.856 545.472 127.188 543.78C128.52 542.088 137.398 536.499 137.398 536.499L139.174 532.692C139.174 532.692 142.725 528.463 143.613 528.463H149.828V530.578L145.388 531.424L147.164 538.614L142.281 541.152C142.281 541.152 136.51 558.916 135.178 560.185C133.847 561.454 131.627 561.967 131.627 561.967L96.9986 567.073ZM69.4342 601.437L67.4427 602.758L66.8125 607.502L72.4843 606.962L71.2239 602.758L69.4342 601.437Z" fill="#E33D02"/>
<path d="M107.776 522.895C107.776 536.823 98.3226 546.914 85.7185 546.914C75.0051 546.914 57.3594 535.022 57.3594 521.094C57.3594 507.166 66.6889 497.676 81.3071 497.676C95.9253 497.676 107.776 508.967 107.776 522.895Z" fill="#E33D02"/>
<path d="M80.0963 505.957C87.4986 502.638 100.993 504.551 100.993 504.551C100.993 504.551 106.725 511.748 107.433 517.59C107.914 521.55 107.433 527.945 107.433 527.945C107.433 527.945 104.53 532.255 103.073 534.145C101.092 536.716 96.7337 539.642 96.7337 539.642C96.7337 539.642 88.6198 541.612 83.4509 540.953C78.101 540.27 72.4848 536.105 72.4848 536.105C72.4848 536.105 67.5465 531.34 66.5789 527.945C65.763 525.083 64.9223 517.59 64.9223 517.59C64.9223 517.59 72.6939 509.276 80.0963 505.957Z" fill="#E33D02"/>
<path d="M62.8676 465.135C63.3384 464.73 63.9135 464.242 64.5819 463.69C66.6142 462.012 69.5064 459.739 72.9446 457.365C79.8338 452.606 88.8636 447.474 97.5385 445.845C101.326 445.134 105.655 445.348 110.046 445.745C111.114 445.842 112.187 445.95 113.256 446.057C116.551 446.388 119.805 446.714 122.751 446.7C126.026 446.684 128.961 446.038 131.074 445.398C132.132 445.078 132.987 444.758 133.579 444.518C133.719 444.461 133.844 444.409 133.953 444.362L141.139 472.554L134.427 470.673L134.426 470.673L134.426 470.673L134.423 470.672L134.411 470.669L134.365 470.656L134.182 470.605C134.021 470.56 133.784 470.493 133.477 470.408C132.863 470.238 131.97 469.994 130.855 469.694C128.625 469.094 125.505 468.273 121.943 467.391C114.825 465.628 105.926 463.613 98.8472 462.623C90.2822 461.425 80.7955 462.172 73.4685 463.212C69.8012 463.733 66.6669 464.328 64.4487 464.793C63.8533 464.918 63.3238 465.033 62.8676 465.135Z" fill="#E33D02" stroke="white"/>
<path d="M135 441L131.821 441.709L159.571 554.724L162.75 554.015L135 441Z" fill="#C4C4C4"/>
<path d="M155.556 523.663L160.083 523.67L161.473 525.663L160.629 526.795L162.339 527.987L162.205 529.687L161.389 530.333L162.492 531.54L161.801 532.666L162.098 533.402L161.194 535.534L157.418 534.117L156.495 534.199L155.051 532.465L154.583 532.537L154.225 529.951L153.281 530.129L153.72 528.056L156.495 526.973L155.556 523.663Z" fill="white"/>
<path d="M158.163 526.321L156.495 526.973M160.629 526.795L161.473 525.663L160.083 523.67L155.556 523.663L156.495 526.973M160.629 526.795L158.942 529.06L154.225 529.951M160.629 526.795L162.339 527.987L162.205 529.687L161.389 530.333M154.225 529.951L153.281 530.129L153.72 528.056L156.495 526.973M154.225 529.951L154.583 532.537L155.051 532.465M161.389 530.333L159.575 531.771L155.051 532.465M161.389 530.333L162.492 531.54L161.801 532.666M155.051 532.465L156.495 534.199L157.418 534.117M161.801 532.666L161.11 533.792L157.418 534.117M161.801 532.666L162.098 533.402L161.194 535.534L157.418 534.117" stroke="black"/>
<path fill-rule="evenodd" clip-rule="evenodd" d="M104.101 563.816L104.001 564.738L96.2298 588.091C96.2298 588.091 101.866 598.76 101.902 606.105C101.919 609.653 100.641 615.112 100.641 615.112L96.2298 621.116C96.2298 621.116 89.3526 619.394 84.8861 619.615C81.6324 619.776 76.6934 621.116 76.6934 621.116L73.6233 619.615L72.9122 622.317C72.9122 622.317 69.9844 623.152 68.5008 622.317C67.3262 621.657 66.4619 619.615 66.4619 619.615L61.272 624.719L60.3081 632.525C60.3081 632.525 57.4299 636.477 54.6363 636.728C51.4417 637.016 47.7041 632.525 47.7041 632.525L48.3343 622.317L45.8135 614.511C45.8135 614.511 47.1391 608.745 50.2249 607.906C51.4998 607.56 53.6199 607.906 53.6199 607.906C53.6199 607.906 51.1865 600.276 51.4853 595.297C51.7613 590.697 54.6363 583.888 54.6363 583.888C54.6363 583.888 54.8029 579.461 55.2665 576.682C56.0275 572.12 59.6779 565.874 59.6779 565.874V560.47H45.1833C45.1833 560.47 42.5036 563.565 41.402 565.874C40.4546 567.86 40.1934 570.318 39.9924 572.209C39.8629 573.427 39.7584 574.41 39.5114 574.881C38.8812 576.082 36.3604 575.481 36.3604 575.481C36.3604 575.481 37.6208 582.086 36.9906 583.888C36.3604 585.689 31.3188 588.091 31.3188 588.091L28.4829 583.888C28.4829 583.888 26.3493 581.518 25.6469 579.685C24.5498 576.821 25.6469 571.879 25.6469 571.879C25.6469 571.879 21.8657 571.278 23.1261 568.876C24.3865 566.474 29.4282 560.47 29.4282 560.47C29.4282 560.47 36.3604 548.461 38.8812 545.458C41.402 542.456 57.7873 539.454 57.7873 539.454C57.7873 539.454 60.1068 535.311 62.1988 532.849C64.2907 530.386 68.5008 526.844 68.5008 526.844L106.313 535.851V543.657C106.313 543.657 106.381 543.712 106.506 543.815H132.515C132.515 543.815 132.959 542.214 134.291 540.522C135.623 538.83 144.501 533.241 144.501 533.241L146.277 529.435C146.277 529.435 149.828 525.205 150.716 525.205H156.931V527.32L152.491 528.166L154.267 535.356L149.384 537.894C149.384 537.894 143.613 555.658 142.282 556.927C140.95 558.196 138.73 558.709 138.73 558.709L104.101 563.816ZM76.5362 598.178L74.5447 599.499L73.9145 604.243L79.5863 603.702L78.3259 599.499L76.5362 598.178Z" fill="white"/>
<path d="M104.101 563.816L104.028 563.321L103.646 563.377L103.604 563.762L104.101 563.816ZM104.001 564.738L104.476 564.896L104.493 564.845L104.498 564.792L104.001 564.738ZM96.2298 588.091L95.7553 587.933L95.6879 588.136L95.7877 588.325L96.2298 588.091ZM101.902 606.105L101.402 606.107L101.902 606.105ZM100.641 615.112L101.044 615.408L101.105 615.325L101.128 615.226L100.641 615.112ZM96.2298 621.116L96.1083 621.601L96.4339 621.683L96.6327 621.412L96.2298 621.116ZM84.8861 619.615L84.9109 620.115L84.8861 619.615ZM76.6934 621.116L76.4738 621.566L76.6428 621.648L76.8244 621.599L76.6934 621.116ZM73.6233 619.615L73.8429 619.166L73.2949 618.898L73.1397 619.488L73.6233 619.615ZM72.9122 622.317L73.0493 622.798L73.3233 622.72L73.3958 622.445L72.9122 622.317ZM68.5008 622.317L68.7459 621.881L68.5008 622.317ZM66.4619 619.615L66.9223 619.42L66.6356 618.743L66.1113 619.259L66.4619 619.615ZM61.272 624.719L60.9214 624.363L60.7971 624.485L60.7758 624.658L61.272 624.719ZM60.3081 632.525L60.7123 632.819L60.7885 632.715L60.8044 632.586L60.3081 632.525ZM54.6363 636.728L54.5914 636.23L54.6363 636.728ZM47.7041 632.525L47.205 632.494L47.1928 632.692L47.3197 632.845L47.7041 632.525ZM48.3343 622.317L48.8333 622.348L48.8392 622.254L48.8101 622.164L48.3343 622.317ZM45.8135 614.511L45.3262 614.399L45.2953 614.534L45.3377 614.665L45.8135 614.511ZM50.2249 607.906L50.356 608.389L50.2249 607.906ZM53.6199 607.906L53.5392 608.4L54.344 608.531L54.0962 607.754L53.6199 607.906ZM51.4853 595.297L50.9862 595.267L51.4853 595.297ZM54.6363 583.888L55.0969 584.082L55.1325 583.998L55.136 583.907L54.6363 583.888ZM55.2665 576.682L55.7597 576.764L55.2665 576.682ZM59.6779 565.874L60.1096 566.126L60.1779 566.009V565.874H59.6779ZM59.6779 560.47H60.1779V559.97H59.6779V560.47ZM45.1833 560.47V559.97H44.9548L44.8052 560.142L45.1833 560.47ZM41.402 565.874L40.9508 565.659L41.402 565.874ZM39.9924 572.209L39.4952 572.156L39.9924 572.209ZM39.5114 574.881L39.0687 574.648L39.5114 574.881ZM36.3604 575.481L36.4763 574.995L35.7244 574.816L35.8693 575.575L36.3604 575.481ZM36.9906 583.888L37.4626 584.053L36.9906 583.888ZM31.3188 588.091L30.9043 588.371L31.1451 588.728L31.5338 588.542L31.3188 588.091ZM28.4829 583.888L28.8973 583.608L28.8778 583.579L28.8545 583.553L28.4829 583.888ZM25.6469 579.685L25.18 579.863L25.6469 579.685ZM25.6469 571.879L26.1351 571.987L26.2502 571.468L25.7254 571.385L25.6469 571.879ZM23.1261 568.876L22.6834 568.644L23.1261 568.876ZM29.4282 560.47L29.8111 560.791L29.8393 560.758L29.8612 560.72L29.4282 560.47ZM38.8812 545.458L38.4983 545.137L38.8812 545.458ZM57.7873 539.454L57.8774 539.945L58.1087 539.903L58.2236 539.698L57.7873 539.454ZM62.1988 532.849L62.5798 533.172L62.1988 532.849ZM68.5008 526.844L68.6167 526.358L68.3716 526.299L68.1789 526.461L68.5008 526.844ZM106.313 535.851H106.813V535.456L106.429 535.364L106.313 535.851ZM106.313 543.657H105.813V543.895L105.998 544.045L106.313 543.657ZM106.506 543.815L106.188 544.201L106.326 544.315H106.506V543.815ZM132.515 543.815V544.315H132.896L132.997 543.949L132.515 543.815ZM144.501 533.241L144.767 533.665L144.892 533.586L144.954 533.453L144.501 533.241ZM146.277 529.435L145.894 529.113L145.851 529.164L145.824 529.223L146.277 529.435ZM150.716 525.205V525.705V525.205ZM156.931 525.205H157.431V524.705H156.931V525.205ZM156.931 527.32L157.024 527.811L157.431 527.734V527.32H156.931ZM152.491 528.166L152.398 527.675L151.88 527.773L152.006 528.286L152.491 528.166ZM154.267 535.356L154.498 535.8L154.847 535.618L154.753 535.236L154.267 535.356ZM149.384 537.894L149.154 537.45L148.972 537.545L148.909 537.739L149.384 537.894ZM142.282 556.927L141.937 556.565L142.282 556.927ZM138.73 558.709L138.803 559.204L138.823 559.201L138.843 559.196L138.73 558.709ZM74.5447 599.499L74.2683 599.083L74.079 599.208L74.0491 599.433L74.5447 599.499ZM76.5362 598.178L76.8331 597.776L76.5514 597.568L76.2598 597.762L76.5362 598.178ZM73.9145 604.243L73.4189 604.177L73.3361 604.8L73.9619 604.741L73.9145 604.243ZM79.5863 603.702L79.6338 604.2L80.2403 604.142L80.0653 603.559L79.5863 603.702ZM78.3259 599.499L78.8049 599.356L78.757 599.196L78.6229 599.097L78.3259 599.499ZM103.604 563.762L103.504 564.684L104.498 564.792L104.598 563.87L103.604 563.762ZM103.527 564.58L95.7553 587.933L96.7042 588.249L104.476 564.896L103.527 564.58ZM96.2298 588.091C95.7877 588.325 95.7877 588.325 95.7877 588.325C95.7877 588.325 95.7877 588.325 95.7878 588.325C95.7879 588.325 95.7881 588.325 95.7884 588.326C95.789 588.327 95.79 588.329 95.7912 588.331C95.7938 588.336 95.7976 588.344 95.8028 588.353C95.8131 588.373 95.8286 588.403 95.8488 588.442C95.8894 588.521 95.9492 588.637 96.0255 588.789C96.1781 589.092 96.3967 589.534 96.6593 590.087C97.1847 591.195 97.8856 592.747 98.5873 594.527C99.9975 598.104 101.384 602.534 101.402 606.107L102.402 606.102C102.383 602.331 100.934 597.754 99.5176 594.16C98.8057 592.355 98.0953 590.781 97.5628 589.659C97.2964 589.097 97.0743 588.648 96.9186 588.339C96.8407 588.184 96.7793 588.064 96.7373 587.983C96.7163 587.942 96.7001 587.911 96.6891 587.89C96.6836 587.88 96.6793 587.872 96.6765 587.866C96.675 587.863 96.6739 587.861 96.6731 587.86C96.6728 587.859 96.6725 587.859 96.6722 587.858C96.6721 587.858 96.672 587.858 96.672 587.858C96.6719 587.858 96.6719 587.857 96.2298 588.091ZM101.402 606.107C101.41 607.834 101.102 610.05 100.785 611.853C100.628 612.75 100.47 613.537 100.351 614.1C100.292 614.382 100.243 614.607 100.208 614.761C100.191 614.838 100.177 614.898 100.168 614.938C100.164 614.958 100.16 614.973 100.158 614.983C100.157 614.988 100.156 614.992 100.155 614.994C100.155 614.996 100.155 614.997 100.155 614.997C100.154 614.997 100.154 614.998 100.154 614.998H100.154C100.154 614.998 100.154 614.998 100.641 615.112C101.128 615.226 101.128 615.226 101.128 615.226C101.128 615.225 101.128 615.225 101.128 615.225C101.128 615.225 101.128 615.225 101.128 615.224C101.129 615.224 101.129 615.223 101.129 615.221C101.13 615.218 101.131 615.214 101.132 615.209C101.135 615.198 101.138 615.182 101.143 615.161C101.153 615.12 101.166 615.058 101.184 614.979C101.219 614.821 101.27 614.592 101.33 614.306C101.45 613.735 101.611 612.936 101.77 612.025C102.088 610.212 102.41 607.924 102.402 606.102L101.402 606.107ZM100.238 614.816L95.8268 620.82L96.6327 621.412L101.044 615.408L100.238 614.816ZM96.2298 621.116C96.3512 620.631 96.3512 620.631 96.3511 620.631C96.351 620.631 96.3509 620.631 96.3508 620.631C96.3505 620.631 96.3501 620.631 96.3496 620.631C96.3487 620.631 96.3473 620.63 96.3455 620.63C96.342 620.629 96.3368 620.628 96.33 620.626C96.3163 620.623 96.2962 620.618 96.27 620.611C96.2175 620.599 96.1404 620.58 96.0409 620.556C95.8419 620.509 95.5534 620.442 95.1934 620.362C94.4736 620.203 93.4673 619.993 92.32 619.79C90.0359 619.386 87.1537 619.002 84.8613 619.116L84.9109 620.115C87.0849 620.007 89.8746 620.373 92.1457 620.775C93.276 620.975 94.2681 621.182 94.9774 621.339C95.332 621.417 95.6156 621.483 95.8101 621.529C95.9074 621.552 95.9824 621.57 96.0329 621.583C96.0581 621.589 96.0772 621.594 96.0898 621.597C96.0962 621.598 96.1009 621.6 96.104 621.6C96.1055 621.601 96.1067 621.601 96.1074 621.601C96.1077 621.601 96.108 621.601 96.1081 621.601C96.1082 621.601 96.1082 621.601 96.1083 621.601C96.1083 621.601 96.1083 621.601 96.2298 621.116ZM84.8613 619.116C83.1916 619.199 81.1102 619.581 79.4639 619.938C78.637 620.116 77.9127 620.29 77.395 620.419C77.1361 620.484 76.9286 620.537 76.7856 620.575C76.7141 620.593 76.6587 620.608 76.6209 620.618C76.6021 620.623 76.5877 620.627 76.5779 620.63C76.5729 620.631 76.5692 620.632 76.5666 620.633C76.5654 620.633 76.5644 620.633 76.5637 620.633C76.5634 620.634 76.5631 620.634 76.5629 620.634C76.5628 620.634 76.5627 620.634 76.5627 620.634C76.5626 620.634 76.5625 620.634 76.6934 621.116C76.8244 621.599 76.8243 621.599 76.8243 621.599C76.8244 621.599 76.8244 621.599 76.8245 621.599C76.8246 621.599 76.8247 621.599 76.825 621.599C76.8255 621.599 76.8263 621.598 76.8274 621.598C76.8296 621.597 76.833 621.597 76.8376 621.595C76.8467 621.593 76.8604 621.589 76.8785 621.584C76.9147 621.575 76.9686 621.56 77.0384 621.542C77.1782 621.506 77.382 621.453 77.637 621.39C78.147 621.262 78.8609 621.091 79.6754 620.915C81.312 620.561 83.327 620.193 84.9109 620.115L84.8613 619.116ZM76.9131 620.667L73.8429 619.166L73.4036 620.064L76.4738 621.566L76.9131 620.667ZM73.1397 619.488L72.4287 622.19L73.3958 622.445L74.1068 619.742L73.1397 619.488ZM72.9122 622.317C72.7752 621.836 72.7753 621.836 72.7753 621.836H72.7754C72.7755 621.836 72.7754 621.836 72.7754 621.836C72.7753 621.836 72.775 621.836 72.7746 621.837C72.7737 621.837 72.7721 621.837 72.7698 621.838C72.7653 621.839 72.758 621.841 72.7482 621.844C72.7286 621.849 72.6988 621.857 72.6598 621.867C72.5817 621.887 72.4672 621.915 72.3246 621.946C72.0387 622.009 71.6437 622.084 71.2064 622.133C70.7674 622.183 70.2967 622.207 69.8563 622.171C69.4113 622.135 69.0298 622.041 68.7459 621.881L68.2557 622.753C68.7136 623.011 69.2544 623.125 69.7756 623.168C70.3014 623.21 70.8409 623.181 71.3193 623.127C71.7994 623.072 72.2291 622.991 72.5385 622.923C72.6936 622.889 72.8194 622.858 72.9072 622.836C72.9512 622.825 72.9857 622.816 73.0097 622.809C73.0217 622.806 73.0311 622.803 73.0378 622.801C73.0411 622.8 73.0437 622.8 73.0456 622.799C73.0466 622.799 73.0474 622.799 73.048 622.798C73.0483 622.798 73.0485 622.798 73.0488 622.798C73.0489 622.798 73.049 622.798 73.049 622.798C73.0492 622.798 73.0493 622.798 72.9122 622.317ZM68.7459 621.881C68.2776 621.618 67.8236 621.04 67.4673 620.457C67.2957 620.177 67.1583 619.915 67.0638 619.724C67.0167 619.628 66.9806 619.55 66.9566 619.498C66.9446 619.471 66.9357 619.451 66.9299 619.438C66.927 619.431 66.925 619.426 66.9237 619.423C66.9231 619.422 66.9226 619.421 66.9224 619.42C66.9223 619.42 66.9222 619.42 66.9222 619.42H66.9223C66.9223 619.42 66.9223 619.42 66.4619 619.615C66.0015 619.81 66.0015 619.81 66.0015 619.81C66.0016 619.81 66.0016 619.81 66.0016 619.811C66.0017 619.811 66.0018 619.811 66.0019 619.811C66.0021 619.812 66.0024 619.812 66.0027 619.813C66.0033 619.814 66.0041 619.816 66.0051 619.819C66.0072 619.824 66.0101 619.83 66.0139 619.839C66.0213 619.856 66.0321 619.88 66.0461 619.911C66.0739 619.972 66.1145 620.059 66.1668 620.165C66.2711 620.377 66.4231 620.667 66.6144 620.979C66.9839 621.583 67.5493 622.356 68.2557 622.753L68.7459 621.881ZM66.1113 619.259L60.9214 624.363L61.6226 625.076L66.8125 619.972L66.1113 619.259ZM60.7758 624.658L59.8119 632.464L60.8044 632.586L61.7682 624.78L60.7758 624.658ZM60.3081 632.525C59.904 632.231 59.904 632.231 59.9041 632.231C59.9041 632.231 59.9041 632.231 59.904 632.231C59.9038 632.231 59.9034 632.231 59.9029 632.232C59.9018 632.234 59.9001 632.236 59.8977 632.239C59.8929 632.246 59.8853 632.256 59.8752 632.269C59.8549 632.296 59.8243 632.337 59.7839 632.389C59.7031 632.493 59.5837 632.644 59.4314 632.825C59.1264 633.19 58.6921 633.677 58.1747 634.17C57.1136 635.183 55.8043 636.121 54.5914 636.23L54.6812 637.226C56.262 637.084 57.7886 635.921 58.8649 634.894C59.4163 634.368 59.8762 633.852 60.1981 633.467C60.3593 633.275 60.4866 633.115 60.5742 633.002C60.6179 632.945 60.6518 632.901 60.6751 632.87C60.6867 632.854 60.6957 632.842 60.7019 632.834C60.705 632.829 60.7075 632.826 60.7092 632.824C60.7101 632.823 60.7108 632.822 60.7113 632.821C60.7115 632.821 60.7117 632.82 60.7119 632.82C60.712 632.82 60.7121 632.82 60.7121 632.82C60.7122 632.82 60.7123 632.819 60.3081 632.525ZM54.5914 636.23C53.9145 636.291 53.1748 636.101 52.4203 635.742C51.669 635.384 50.9367 634.876 50.2881 634.347C49.6412 633.82 49.0892 633.282 48.6985 632.876C48.5035 632.673 48.3495 632.504 48.2449 632.386C48.1927 632.327 48.1528 632.281 48.1263 632.25C48.1131 632.235 48.1033 632.223 48.0969 632.215C48.0937 632.212 48.0914 632.209 48.09 632.207C48.0893 632.206 48.0888 632.206 48.0885 632.205C48.0884 632.205 48.0883 632.205 48.0883 632.205C48.0883 632.205 48.0884 632.205 47.7041 632.525C47.3197 632.845 47.3198 632.845 47.3199 632.845C47.32 632.845 47.3201 632.845 47.3202 632.845C47.3204 632.846 47.3207 632.846 47.321 632.846C47.3216 632.847 47.3225 632.848 47.3236 632.85C47.3258 632.852 47.3289 632.856 47.3329 632.861C47.3409 632.87 47.3524 632.884 47.3673 632.901C47.3972 632.936 47.4407 632.986 47.4969 633.049C47.6092 633.176 47.7722 633.355 47.9775 633.569C48.3874 633.995 48.9695 634.563 49.6564 635.122C50.3415 635.681 51.1425 636.241 51.9906 636.645C52.8354 637.047 53.7608 637.309 54.6812 637.226L54.5914 636.23ZM48.2031 632.556L48.8333 622.348L47.8352 622.286L47.205 632.494L48.2031 632.556ZM48.8101 622.164L46.2893 614.358L45.3377 614.665L47.8585 622.471L48.8101 622.164ZM45.8135 614.511C46.3007 614.623 46.3007 614.623 46.3007 614.623C46.3007 614.623 46.3007 614.623 46.3008 614.623C46.3009 614.623 46.301 614.622 46.3013 614.621C46.3018 614.619 46.3026 614.615 46.3038 614.61C46.3061 614.601 46.3097 614.586 46.3146 614.566C46.3244 614.526 46.3394 614.467 46.3597 614.39C46.4004 614.237 46.4623 614.015 46.5462 613.746C46.7143 613.206 46.9689 612.481 47.3156 611.734C47.6634 610.984 48.0963 610.228 48.6152 609.615C49.1355 609.002 49.7165 608.563 50.356 608.389L50.0937 607.424C49.1904 607.669 48.4485 608.266 47.8524 608.969C47.2548 609.674 46.7777 610.517 46.4084 611.313C46.0379 612.112 45.7683 612.881 45.5914 613.448C45.5028 613.733 45.437 613.968 45.3932 614.134C45.3712 614.216 45.3548 614.281 45.3436 614.327C45.3381 614.349 45.3338 614.367 45.3309 614.379C45.3295 614.385 45.3284 614.39 45.3276 614.393C45.3272 614.395 45.3269 614.396 45.3266 614.397C45.3265 614.398 45.3264 614.398 45.3263 614.399C45.3263 614.399 45.3263 614.399 45.3262 614.399C45.3262 614.399 45.3262 614.399 45.8135 614.511ZM50.356 608.389C50.9093 608.238 51.6882 608.232 52.3691 608.275C52.7015 608.296 52.996 608.328 53.2072 608.354C53.3127 608.367 53.3969 608.378 53.4543 608.387C53.4829 608.391 53.5048 608.394 53.5192 608.396C53.5264 608.398 53.5317 608.398 53.5351 608.399C53.5368 608.399 53.5379 608.399 53.5386 608.4C53.539 608.4 53.5392 608.4 53.5393 608.4C53.5393 608.4 53.5394 608.4 53.5393 608.4C53.5392 608.4 53.5392 608.4 53.6199 607.906C53.7005 607.413 53.7004 607.413 53.7004 607.413C53.7003 607.413 53.7002 607.413 53.7002 607.413C53.7 607.413 53.6999 607.413 53.6996 607.413C53.6992 607.413 53.6987 607.412 53.698 607.412C53.6966 607.412 53.6948 607.412 53.6924 607.411C53.6877 607.411 53.6809 607.41 53.6723 607.408C53.655 607.406 53.6301 607.402 53.5983 607.397C53.5347 607.388 53.4433 607.375 53.3301 607.361C53.104 607.333 52.7889 607.3 52.4318 607.277C51.734 607.233 50.8154 607.228 50.0937 607.424L50.356 608.389ZM53.6199 607.906C54.0962 607.754 54.0962 607.754 54.0962 607.754C54.0961 607.754 54.096 607.754 54.0959 607.753C54.0957 607.753 54.0953 607.751 54.0947 607.75C54.0936 607.746 54.092 607.741 54.0898 607.734C54.0854 607.72 54.0787 607.699 54.0701 607.671C54.0527 607.615 54.0271 607.532 53.9945 607.424C53.9294 607.208 53.8364 606.894 53.7256 606.501C53.5039 605.714 53.2114 604.613 52.9282 603.359C52.359 600.836 51.8395 597.742 51.9844 595.326L50.9862 595.267C50.8323 597.831 51.3801 601.041 51.9528 603.579C52.2406 604.854 52.5378 605.972 52.763 606.772C52.8757 607.172 52.9705 607.492 53.0372 607.713C53.0706 607.824 53.097 607.909 53.1151 607.968C53.1242 607.997 53.1312 608.019 53.136 608.034C53.1384 608.042 53.1402 608.048 53.1415 608.052C53.1421 608.054 53.1426 608.055 53.1429 608.056C53.1431 608.057 53.1432 608.057 53.1433 608.058C53.1434 608.058 53.1434 608.058 53.1434 608.058C53.1435 608.058 53.1435 608.058 53.6199 607.906ZM51.9844 595.326C52.1183 593.095 52.888 590.295 53.639 588.024C54.0125 586.895 54.3776 585.908 54.6493 585.203C54.7851 584.851 54.8974 584.57 54.9756 584.377C55.0147 584.281 55.0452 584.207 55.0659 584.157C55.0762 584.132 55.0841 584.113 55.0893 584.1C55.0919 584.094 55.0939 584.089 55.0952 584.086C55.0958 584.085 55.0963 584.084 55.0966 584.083C55.0967 584.083 55.0968 584.083 55.0969 584.082C55.0969 584.082 55.0969 584.082 54.6363 583.888C54.1757 583.693 54.1757 583.693 54.1756 583.693L54.1755 583.694C54.1754 583.694 54.1752 583.694 54.175 583.695C54.1746 583.696 54.174 583.697 54.1733 583.699C54.1718 583.703 54.1696 583.708 54.1668 583.714C54.1611 583.728 54.1528 583.748 54.142 583.774C54.1204 583.826 54.089 583.903 54.0489 584.001C53.9688 584.199 53.8543 584.486 53.7163 584.844C53.4402 585.56 53.0693 586.562 52.6896 587.71C51.9341 589.994 51.1283 592.898 50.9862 595.267L51.9844 595.326ZM54.6363 583.888C55.136 583.907 55.136 583.907 55.136 583.907V583.906C55.136 583.905 55.136 583.905 55.1361 583.904C55.1361 583.902 55.1363 583.899 55.1364 583.894C55.1367 583.886 55.1372 583.874 55.1379 583.857C55.1392 583.825 55.1412 583.776 55.1439 583.714C55.1493 583.588 55.1576 583.406 55.169 583.178C55.1917 582.722 55.2269 582.085 55.2764 581.361C55.3758 579.91 55.5321 578.129 55.7597 576.764L54.7733 576.6C54.5373 578.015 54.3785 579.836 54.2787 581.293C54.2287 582.024 54.1932 582.667 54.1702 583.128C54.1587 583.358 54.1503 583.543 54.1448 583.671C54.1421 583.734 54.1401 583.784 54.1387 583.817C54.138 583.834 54.1375 583.847 54.1372 583.856C54.137 583.86 54.1369 583.863 54.1368 583.865C54.1368 583.867 54.1367 583.867 54.1367 583.868C54.1367 583.868 54.1367 583.868 54.1367 583.869C54.1367 583.869 54.1367 583.869 54.6363 583.888ZM55.7597 576.764C56.1282 574.555 57.2056 571.905 58.2096 569.781C58.7089 568.725 59.1848 567.81 59.5358 567.158C59.7112 566.833 59.8552 566.574 59.9552 566.397C60.0051 566.308 60.044 566.24 60.0703 566.194C60.0835 566.171 60.0934 566.154 60.1 566.143C60.1034 566.137 60.1058 566.133 60.1074 566.13C60.1082 566.129 60.1088 566.128 60.1092 566.127C60.1094 566.127 60.1095 566.126 60.1096 566.126C60.1096 566.126 60.1096 566.126 59.6779 565.874C59.2463 565.622 59.2462 565.622 59.2462 565.622C59.2461 565.622 59.246 565.622 59.246 565.622C59.2458 565.622 59.2456 565.623 59.2454 565.623C59.2448 565.624 59.2441 565.625 59.2431 565.627C59.2412 565.63 59.2385 565.635 59.2348 565.641C59.2276 565.654 59.217 565.672 59.2032 565.696C59.1756 565.744 59.1354 565.815 59.084 565.906C58.9813 566.088 58.8342 566.352 58.6555 566.684C58.2983 567.347 57.814 568.278 57.3055 569.354C56.2941 571.493 55.1658 574.247 54.7733 576.6L55.7597 576.764ZM60.1779 565.874V560.47H59.1779V565.874H60.1779ZM59.6779 559.97H45.1833V560.97H59.6779V559.97ZM45.1833 560.47C44.8052 560.142 44.8052 560.143 44.8052 560.143C44.8051 560.143 44.8051 560.143 44.805 560.143C44.8049 560.143 44.8047 560.143 44.8045 560.143C44.8041 560.144 44.8036 560.144 44.8029 560.145C44.8014 560.147 44.7994 560.149 44.7967 560.152C44.7913 560.159 44.7834 560.168 44.7731 560.18C44.7526 560.204 44.7226 560.239 44.6843 560.284C44.6075 560.375 44.4971 560.507 44.3612 560.672C44.0898 561.002 43.7162 561.466 43.3077 562.003C42.4966 563.07 41.5249 564.455 40.9508 565.659L41.8533 566.089C42.3808 564.984 43.2996 563.666 44.1038 562.609C44.5028 562.084 44.8681 561.63 45.1335 561.307C45.2661 561.146 45.3736 561.018 45.4477 560.93C45.4847 560.886 45.5134 560.853 45.5327 560.83C45.5423 560.819 45.5496 560.811 45.5544 560.805C45.5568 560.802 45.5586 560.8 45.5597 560.799C45.5603 560.798 45.5607 560.798 45.561 560.797C45.5611 560.797 45.5612 560.797 45.5612 560.797C45.5613 560.797 45.5613 560.797 45.5613 560.797C45.5613 560.797 45.5613 560.797 45.1833 560.47ZM40.9508 565.659C39.9599 567.736 39.6943 570.282 39.4952 572.156L40.4896 572.261C40.6924 570.353 40.9492 567.984 41.8533 566.089L40.9508 565.659ZM39.4952 572.156C39.43 572.769 39.3729 573.305 39.3022 573.746C39.2294 574.201 39.1507 574.492 39.0687 574.648L39.9542 575.113C40.119 574.799 40.2161 574.363 40.2896 573.904C40.3654 573.431 40.4253 572.866 40.4896 572.261L39.4952 572.156ZM39.0687 574.648C38.9885 574.801 38.8374 574.923 38.5895 575.009C38.3378 575.096 38.0254 575.131 37.6996 575.131C37.3781 575.131 37.0699 575.097 36.8395 575.062C36.7251 575.045 36.6319 575.027 36.5683 575.015C36.5365 575.008 36.5122 575.003 36.4965 574.999C36.4887 574.998 36.483 574.996 36.4795 574.996C36.4778 574.995 36.4767 574.995 36.4761 574.995C36.4759 574.995 36.4757 574.995 36.4757 574.995C36.4758 574.995 36.4758 574.995 36.4759 574.995H36.476C36.4761 574.995 36.4763 574.995 36.3604 575.481C36.2445 575.968 36.2447 575.968 36.2448 575.968C36.2449 575.968 36.245 575.968 36.2451 575.968C36.2454 575.968 36.2457 575.968 36.246 575.968C36.2466 575.968 36.2474 575.968 36.2483 575.969C36.2502 575.969 36.2527 575.97 36.2558 575.97C36.2619 575.972 36.2704 575.974 36.2812 575.976C36.3027 575.981 36.3332 575.987 36.3716 575.995C36.4483 576.01 36.557 576.031 36.6888 576.051C36.9507 576.091 37.3121 576.131 37.6996 576.131C38.0828 576.131 38.5187 576.092 38.9169 575.954C39.3189 575.814 39.7193 575.561 39.9542 575.113L39.0687 574.648ZM36.3604 575.481C35.8693 575.575 35.8693 575.575 35.8693 575.575L35.8694 575.576C35.8696 575.577 35.8698 575.578 35.8701 575.579C35.8706 575.582 35.8715 575.587 35.8726 575.593C35.8749 575.605 35.8784 575.623 35.8828 575.647C35.8918 575.695 35.9048 575.766 35.9213 575.857C35.9542 576.04 36.0006 576.303 36.0543 576.624C36.1619 577.267 36.2987 578.142 36.4157 579.071C36.533 580.003 36.6295 580.98 36.6583 581.831C36.6879 582.706 36.6419 583.37 36.5187 583.723L37.4626 584.053C37.6544 583.504 37.6872 582.668 37.6577 581.797C37.6274 580.903 37.527 579.892 37.4079 578.947C37.2887 578 37.1497 577.111 37.0406 576.459C36.9861 576.133 36.9389 575.866 36.9054 575.68C36.8886 575.587 36.8752 575.514 36.866 575.464C36.8614 575.44 36.8578 575.421 36.8553 575.408C36.8541 575.401 36.8532 575.396 36.8526 575.393C36.8522 575.391 36.852 575.39 36.8518 575.389C36.8517 575.389 36.8517 575.388 36.8516 575.388C36.8516 575.388 36.8515 575.388 36.3604 575.481ZM36.5187 583.723C36.408 584.039 36.0656 584.454 35.5141 584.924C34.9803 585.379 34.315 585.833 33.656 586.239C32.9991 586.644 32.3598 586.995 31.884 587.245C31.6463 587.37 31.4502 587.469 31.3139 587.537C31.2458 587.57 31.1927 587.596 31.1569 587.614C31.139 587.623 31.1254 587.629 31.1165 587.633C31.112 587.636 31.1086 587.637 31.1065 587.638C31.1055 587.639 31.1047 587.639 31.1042 587.639C31.104 587.639 31.1038 587.64 31.1037 587.64C31.1037 587.64 31.1037 587.64 31.3188 588.091C31.5338 588.542 31.5339 588.542 31.534 588.542C31.534 588.542 31.5341 588.542 31.5343 588.542C31.5345 588.542 31.5348 588.542 31.5352 588.542C31.5359 588.541 31.537 588.541 31.5383 588.54C31.5411 588.539 31.545 588.537 31.5501 588.535C31.5602 588.53 31.575 588.523 31.5942 588.513C31.6326 588.495 31.6884 588.467 31.7593 588.432C31.9012 588.361 32.1039 588.259 32.3488 588.13C32.8379 587.873 33.4985 587.511 34.1808 587.09C34.8609 586.671 35.5742 586.187 36.1629 585.685C36.734 585.198 37.2582 584.637 37.4626 584.053L36.5187 583.723ZM31.7333 587.811L28.8973 583.608L28.0684 584.167L30.9043 588.371L31.7333 587.811ZM28.4829 583.888C28.8545 583.553 28.8545 583.553 28.8545 583.553H28.8544C28.8542 583.553 28.8539 583.553 28.8535 583.552C28.8527 583.551 28.8513 583.55 28.8495 583.548C28.8458 583.544 28.8402 583.537 28.8327 583.529C28.8178 583.512 28.7954 583.487 28.7664 583.453C28.7085 583.387 28.6245 583.29 28.5211 583.167C28.3143 582.921 28.0313 582.574 27.7271 582.172C27.1103 581.356 26.4382 580.352 26.1138 579.506L25.18 579.863C25.5579 580.85 26.3039 581.948 26.9294 582.775C27.2464 583.194 27.5407 583.555 27.7559 583.811C27.8635 583.939 27.9516 584.041 28.0132 584.111C28.0439 584.146 28.0681 584.174 28.0847 584.193C28.093 584.202 28.0995 584.209 28.1039 584.214C28.1062 584.217 28.1079 584.219 28.1091 584.22C28.1097 584.221 28.1102 584.221 28.1106 584.222C28.1107 584.222 28.1109 584.222 28.111 584.222C28.1111 584.222 28.1111 584.222 28.1111 584.222C28.1112 584.222 28.1112 584.222 28.4829 583.888ZM26.1138 579.506C25.6086 578.187 25.5974 576.333 25.7337 574.751C25.8008 573.97 25.9016 573.277 25.9857 572.779C26.0277 572.53 26.0654 572.33 26.0924 572.194C26.1059 572.125 26.1168 572.073 26.1242 572.038C26.1278 572.02 26.1307 572.007 26.1325 571.999C26.1334 571.994 26.1341 571.991 26.1345 571.989C26.1348 571.988 26.1349 571.988 26.135 571.987H26.1351C26.1351 571.987 26.1351 571.987 25.6469 571.879C25.1588 571.77 25.1588 571.77 25.1588 571.77L25.1587 571.771C25.1586 571.771 25.1586 571.771 25.1585 571.772C25.1583 571.773 25.1581 571.774 25.1577 571.775C25.1571 571.778 25.1563 571.782 25.1551 571.787C25.1529 571.797 25.1497 571.812 25.1456 571.832C25.1374 571.87 25.1258 571.927 25.1115 571.999C25.0828 572.144 25.0433 572.353 24.9996 572.612C24.9123 573.13 24.8074 573.851 24.7373 574.665C24.5993 576.269 24.5881 578.319 25.18 579.863L26.1138 579.506ZM25.6469 571.879C25.7254 571.385 25.7255 571.385 25.7256 571.385C25.7257 571.385 25.7258 571.385 25.7258 571.385C25.7259 571.385 25.726 571.385 25.726 571.385C25.726 571.385 25.7257 571.385 25.7253 571.385C25.7243 571.385 25.7225 571.384 25.7199 571.384C25.7146 571.383 25.706 571.381 25.6943 571.379C25.6709 571.375 25.6352 571.368 25.5893 571.359C25.4973 571.339 25.3656 571.309 25.2107 571.266C24.8969 571.178 24.5067 571.041 24.162 570.844C23.8109 570.643 23.5597 570.41 23.4443 570.153C23.3416 569.925 23.311 569.6 23.5689 569.109L22.6834 568.644C22.3111 569.353 22.2805 570.004 22.5323 570.564C22.7714 571.095 23.2291 571.463 23.6657 571.712C24.1088 571.965 24.5851 572.129 24.9409 572.229C25.1208 572.279 25.2746 572.314 25.3846 572.337C25.4396 572.349 25.4839 572.357 25.5153 572.363C25.5309 572.366 25.5434 572.368 25.5524 572.37C25.5568 572.37 25.5604 572.371 25.5632 572.371C25.5645 572.372 25.5656 572.372 25.5665 572.372C25.567 572.372 25.5674 572.372 25.5677 572.372C25.5679 572.372 25.5681 572.372 25.5682 572.372C25.5683 572.372 25.5685 572.372 25.6469 571.879ZM23.5689 569.109C24.1735 567.956 25.7174 565.892 27.1427 564.082C27.849 563.184 28.5164 562.361 29.0074 561.763C29.2528 561.463 29.4539 561.22 29.5936 561.052C29.6635 560.968 29.718 560.903 29.7549 560.858C29.7734 560.836 29.7875 560.819 29.797 560.808C29.8017 560.802 29.8052 560.798 29.8076 560.795C29.8088 560.794 29.8097 560.793 29.8103 560.792C29.8105 560.792 29.8108 560.792 29.8109 560.791C29.811 560.791 29.811 560.791 29.811 560.791C29.8111 560.791 29.8111 560.791 29.4282 560.47C29.0452 560.148 29.0452 560.148 29.0452 560.148C29.0451 560.148 29.045 560.148 29.045 560.149C29.0448 560.149 29.0445 560.149 29.0442 560.149C29.0436 560.15 29.0426 560.151 29.0414 560.153C29.0389 560.156 29.0352 560.16 29.0304 560.166C29.0206 560.178 29.0063 560.195 28.9875 560.217C28.95 560.262 28.895 560.328 28.8245 560.413C28.6836 560.583 28.481 560.827 28.2341 561.128C27.7403 561.731 27.0685 562.559 26.3569 563.463C24.9463 565.255 23.3391 567.394 22.6834 568.644L23.5689 569.109ZM29.4282 560.47C29.8612 560.72 29.8612 560.72 29.8613 560.72C29.8613 560.72 29.8614 560.719 29.8615 560.719C29.8617 560.719 29.862 560.718 29.8624 560.718C29.8632 560.716 29.8645 560.714 29.8661 560.711C29.8694 560.705 29.8744 560.697 29.881 560.686C29.8941 560.663 29.9136 560.629 29.9393 560.585C29.9905 560.496 30.066 560.366 30.1631 560.199C30.3573 559.866 30.6375 559.385 30.9818 558.8C31.6703 557.628 32.6144 556.035 33.6369 554.349C35.6927 550.959 38.0341 547.245 39.2641 545.78L38.4983 545.137C37.2076 546.674 34.8224 550.466 32.7818 553.831C31.7562 555.522 30.8097 557.119 30.1197 558.293C29.7746 558.88 29.4936 559.362 29.2988 559.696C29.2014 559.864 29.1255 559.995 29.074 560.083C29.0482 560.128 29.0286 560.162 29.0153 560.185C29.0087 560.196 29.0036 560.205 29.0003 560.211C28.9986 560.214 28.9973 560.216 28.9964 560.218C28.996 560.218 28.9957 560.219 28.9955 560.219C28.9954 560.219 28.9953 560.22 28.9952 560.22C28.9952 560.22 28.9951 560.22 29.4282 560.47ZM39.2641 545.78C39.5174 545.478 39.9818 545.139 40.6535 544.779C41.3156 544.424 42.1396 544.069 43.0732 543.722C44.9397 543.027 47.2047 542.376 49.4032 541.815C51.5995 541.254 53.7188 540.787 55.2898 540.459C56.075 540.295 56.7226 540.167 57.1737 540.079C57.3992 540.036 57.5755 540.002 57.6953 539.979C57.7551 539.968 57.8009 539.96 57.8316 539.954C57.8469 539.951 57.8585 539.949 57.8661 539.948C57.87 539.947 57.8729 539.946 57.8748 539.946C57.8757 539.946 57.8764 539.946 57.8768 539.946C57.8771 539.946 57.8772 539.946 57.8773 539.945C57.8774 539.945 57.8774 539.945 57.7873 539.454C57.6972 538.962 57.6971 538.962 57.697 538.962C57.6968 538.962 57.6966 538.962 57.6963 538.962C57.6958 538.962 57.695 538.962 57.6939 538.962C57.6919 538.963 57.6888 538.963 57.6847 538.964C57.6767 538.966 57.6647 538.968 57.6489 538.971C57.6175 538.977 57.5709 538.985 57.5101 538.997C57.3887 539.02 57.2105 539.054 56.983 539.098C56.5282 539.186 55.876 539.315 55.0857 539.48C53.5057 539.81 51.3711 540.28 49.1559 540.846C46.943 541.41 44.6391 542.072 42.7244 542.785C41.7673 543.141 40.8976 543.514 40.1811 543.898C39.4743 544.276 38.8752 544.688 38.4983 545.137L39.2641 545.78ZM57.7873 539.454C58.2236 539.698 58.2236 539.698 58.2236 539.698C58.2236 539.698 58.2236 539.698 58.2237 539.698C58.2237 539.698 58.2238 539.698 58.2239 539.697C58.2241 539.697 58.2245 539.696 58.225 539.695C58.2261 539.694 58.2277 539.691 58.2298 539.687C58.2341 539.679 58.2406 539.668 58.2491 539.653C58.2663 539.622 58.2918 539.577 58.3252 539.519C58.3919 539.402 58.4897 539.232 58.6138 539.021C58.8621 538.597 59.2148 538.007 59.6323 537.34C60.4706 536.001 61.558 534.375 62.5798 533.172L61.8177 532.525C60.7476 533.784 59.6293 535.461 58.7848 536.809C58.361 537.486 58.0031 538.085 57.751 538.515C57.625 538.73 57.5253 538.903 57.457 539.023C57.4228 539.082 57.3965 539.129 57.3787 539.16C57.3697 539.176 57.3629 539.188 57.3583 539.197C57.356 539.201 57.3542 539.204 57.353 539.206C57.3524 539.207 57.3519 539.208 57.3516 539.208C57.3514 539.209 57.3513 539.209 57.3512 539.209C57.3512 539.209 57.3511 539.209 57.3511 539.209C57.3511 539.209 57.3511 539.209 57.7873 539.454ZM62.5798 533.172C63.6033 531.968 65.1581 530.485 66.4704 529.293C67.1239 528.7 67.7126 528.182 68.1378 527.814C68.3504 527.629 68.522 527.482 68.6403 527.381C68.6994 527.331 68.7452 527.292 68.7761 527.266C68.7916 527.253 68.8033 527.243 68.8112 527.236C68.8151 527.233 68.818 527.231 68.8199 527.229C68.8209 527.228 68.8216 527.227 68.8221 527.227C68.8223 527.227 68.8225 527.227 68.8226 527.227L68.8227 527.227C68.8227 527.227 68.8227 527.227 68.5008 526.844C68.1789 526.461 68.1788 526.461 68.1788 526.461C68.1788 526.461 68.1787 526.462 68.1786 526.462C68.1785 526.462 68.1782 526.462 68.178 526.462C68.1774 526.463 68.1766 526.463 68.1755 526.464C68.1734 526.466 68.1703 526.469 68.1661 526.472C68.1579 526.479 68.1458 526.489 68.1299 526.503C68.0981 526.53 68.0514 526.569 67.9913 526.621C67.8712 526.723 67.6975 526.872 67.4827 527.058C67.0532 527.431 66.4586 527.953 65.7981 528.553C64.4824 529.748 62.8861 531.267 61.8177 532.525L62.5798 533.172ZM68.3849 527.33L106.197 536.337L106.429 535.364L68.6167 526.358L68.3849 527.33ZM105.813 535.851V543.657H106.813V535.851H105.813ZM106.313 543.657C105.998 544.045 105.998 544.045 105.998 544.045C105.998 544.045 105.998 544.045 105.998 544.045C105.998 544.046 105.999 544.046 105.999 544.046C105.999 544.046 106 544.047 106.001 544.048C106.003 544.049 106.006 544.052 106.01 544.055C106.018 544.061 106.03 544.071 106.046 544.084C106.078 544.11 106.126 544.149 106.188 544.201L106.825 543.43C106.761 543.378 106.712 543.337 106.679 543.31C106.663 543.297 106.65 543.286 106.641 543.279C106.637 543.276 106.634 543.273 106.631 543.271C106.63 543.27 106.629 543.27 106.629 543.269C106.628 543.269 106.628 543.269 106.628 543.269C106.628 543.268 106.628 543.268 106.628 543.268C106.628 543.268 106.628 543.268 106.313 543.657ZM106.506 544.315H132.515V543.315H106.506V544.315ZM132.515 543.815C132.997 543.949 132.997 543.949 132.997 543.949V543.95C132.997 543.95 132.997 543.949 132.998 543.948C132.998 543.946 132.999 543.943 133 543.938C133.003 543.929 133.008 543.913 133.014 543.893C133.027 543.851 133.048 543.788 133.077 543.705C133.135 543.541 133.227 543.301 133.359 543.01C133.624 542.426 134.048 541.639 134.684 540.831L133.898 540.213C133.202 541.097 132.739 541.957 132.449 542.597C132.303 542.917 132.201 543.183 132.134 543.372C132.101 543.466 132.076 543.541 132.06 543.594C132.052 543.62 132.045 543.641 132.041 543.656C132.039 543.663 132.037 543.669 132.036 543.673C132.035 543.676 132.035 543.677 132.034 543.679C132.034 543.679 132.034 543.68 132.034 543.681V543.682C132.034 543.682 132.034 543.682 132.515 543.815ZM134.684 540.831C134.969 540.469 135.717 539.841 136.748 539.071C137.758 538.316 138.985 537.464 140.175 536.662C141.364 535.86 142.513 535.11 143.364 534.561C143.79 534.287 144.141 534.062 144.385 533.907C144.508 533.829 144.603 533.768 144.668 533.727C144.701 533.707 144.726 533.691 144.742 533.68C144.751 533.675 144.757 533.671 144.761 533.668C144.763 533.667 144.765 533.666 144.766 533.665C144.766 533.665 144.767 533.665 144.767 533.665C144.767 533.665 144.767 533.665 144.767 533.665C144.767 533.665 144.767 533.665 144.501 533.241C144.235 532.818 144.235 532.818 144.235 532.818C144.234 532.818 144.234 532.818 144.234 532.819C144.234 532.819 144.234 532.819 144.233 532.819C144.232 532.82 144.23 532.821 144.228 532.822C144.224 532.825 144.217 532.829 144.209 532.835C144.192 532.845 144.167 532.861 144.134 532.882C144.068 532.924 143.972 532.985 143.849 533.063C143.602 533.22 143.25 533.445 142.822 533.721C141.967 534.272 140.813 535.026 139.616 535.833C138.42 536.639 137.178 537.501 136.149 538.27C135.141 539.024 134.279 539.729 133.898 540.213L134.684 540.831ZM144.954 533.453L146.73 529.646L145.824 529.223L144.048 533.03L144.954 533.453ZM146.277 529.435C146.66 529.756 146.66 529.756 146.66 529.756V529.756C146.66 529.756 146.66 529.756 146.66 529.756C146.66 529.755 146.661 529.755 146.662 529.754C146.663 529.752 146.666 529.749 146.669 529.745C146.676 529.737 146.686 529.726 146.698 529.71C146.724 529.68 146.762 529.635 146.811 529.578C146.909 529.463 147.05 529.3 147.222 529.103C147.566 528.709 148.033 528.186 148.527 527.663C149.022 527.139 149.536 526.624 149.975 526.244C150.195 526.053 150.386 525.906 150.538 525.809C150.717 525.696 150.761 525.705 150.716 525.705V524.705C150.448 524.705 150.188 524.847 150.002 524.965C149.79 525.099 149.558 525.282 149.32 525.488C148.844 525.901 148.303 526.444 147.8 526.977C147.295 527.511 146.818 528.045 146.469 528.445C146.294 528.645 146.151 528.811 146.051 528.928C146.001 528.987 145.962 529.033 145.935 529.064C145.922 529.08 145.912 529.092 145.905 529.1C145.901 529.104 145.898 529.108 145.897 529.11C145.896 529.111 145.895 529.112 145.895 529.112C145.894 529.113 145.894 529.113 145.894 529.113C145.894 529.113 145.894 529.113 145.894 529.113C145.894 529.113 145.894 529.113 146.277 529.435ZM150.716 525.705H156.931V524.705H150.716V525.705ZM156.431 525.205V527.32H157.431V525.205H156.431ZM156.837 526.829L152.398 527.675L152.585 528.657L157.024 527.811L156.837 526.829ZM152.006 528.286L153.782 535.476L154.753 535.236L152.977 528.046L152.006 528.286ZM154.037 534.913L149.154 537.45L149.615 538.338L154.498 535.8L154.037 534.913ZM149.384 537.894C148.909 537.739 148.909 537.74 148.908 537.74C148.908 537.74 148.908 537.74 148.908 537.74C148.908 537.741 148.908 537.742 148.908 537.743C148.907 537.745 148.906 537.748 148.904 537.752C148.902 537.761 148.898 537.773 148.892 537.79C148.881 537.824 148.865 537.873 148.844 537.939C148.801 538.069 148.739 538.26 148.659 538.504C148.498 538.991 148.268 539.69 147.987 540.531C147.426 542.215 146.664 544.473 145.86 546.77C145.056 549.067 144.213 551.4 143.488 553.234C143.125 554.152 142.795 554.939 142.516 555.532C142.377 555.829 142.253 556.071 142.148 556.254C142.035 556.449 141.964 556.539 141.937 556.565L142.626 557.289C142.765 557.157 142.895 556.96 143.014 556.754C143.139 556.538 143.276 556.268 143.422 555.958C143.713 555.337 144.052 554.527 144.418 553.602C145.15 551.748 145.999 549.402 146.804 547.1C147.61 544.797 148.374 542.534 148.936 540.848C149.217 540.004 149.448 539.305 149.609 538.816C149.689 538.571 149.752 538.38 149.794 538.249C149.816 538.184 149.832 538.134 149.843 538.1C149.848 538.083 149.853 538.07 149.855 538.061C149.857 538.057 149.858 538.054 149.859 538.052C149.859 538.051 149.859 538.05 149.859 538.049C149.859 538.049 149.86 538.049 149.86 538.049C149.86 538.049 149.86 538.048 149.384 537.894ZM141.937 556.565C141.338 557.135 140.519 557.552 139.822 557.829C139.478 557.966 139.173 558.065 138.956 558.13C138.847 558.162 138.76 558.186 138.702 558.201C138.673 558.209 138.651 558.214 138.636 558.218C138.629 558.219 138.624 558.221 138.621 558.221C138.619 558.222 138.618 558.222 138.618 558.222C138.617 558.222 138.617 558.222 138.617 558.222C138.617 558.222 138.618 558.222 138.73 558.709C138.843 559.196 138.843 559.196 138.843 559.196C138.844 559.196 138.844 559.196 138.844 559.196C138.845 559.196 138.845 559.196 138.846 559.196C138.848 559.195 138.85 559.195 138.852 559.194C138.858 559.193 138.865 559.191 138.875 559.189C138.893 559.184 138.92 559.177 138.954 559.169C139.023 559.151 139.12 559.124 139.24 559.089C139.48 559.017 139.814 558.909 140.191 558.759C140.937 558.462 141.893 557.988 142.626 557.289L141.937 556.565ZM138.657 558.215L104.028 563.321L104.174 564.31L138.803 559.204L138.657 558.215ZM74.8211 599.916L76.8125 598.595L76.2598 597.762L74.2683 599.083L74.8211 599.916ZM74.4101 604.309L75.0404 599.565L74.0491 599.433L73.4189 604.177L74.4101 604.309ZM79.5389 603.205L73.8671 603.745L73.9619 604.741L79.6338 604.2L79.5389 603.205ZM77.847 599.643L79.1074 603.846L80.0653 603.559L78.8049 599.356L77.847 599.643ZM76.2392 598.581L78.029 599.901L78.6229 599.097L76.8331 597.776L76.2392 598.581Z" fill="black"/>
<path d="M114.381 519.637C114.381 533.329 105.114 543.159 92.8208 543.159C87.615 543.159 80.6331 540.252 74.9387 535.585C69.2454 530.918 64.9586 524.59 64.9586 517.836C64.9586 510.985 67.2507 505.265 71.3031 501.257C75.3557 497.25 81.2099 494.915 88.4094 494.915C102.776 494.915 114.381 506.006 114.381 519.637Z" fill="#F3F3F3" stroke="black" stroke-width="0.993762"/>
<path d="M87.1978 502.699C94.6002 499.38 108.095 501.293 108.095 501.293C108.095 501.293 113.826 508.49 114.535 514.332C115.015 518.292 114.535 524.687 114.535 524.687C114.535 524.687 111.631 528.997 110.175 530.887C108.193 533.458 103.835 536.384 103.835 536.384C103.835 536.384 95.7213 538.354 90.5525 537.695C85.2026 537.012 79.5863 532.848 79.5863 532.848C79.5863 532.848 74.648 528.082 73.6805 524.687C72.8646 521.825 72.0238 514.332 72.0238 514.332C72.0238 514.332 79.7955 506.018 87.1978 502.699Z" fill="#222222" stroke="black" stroke-width="1.41966"/>
<path d="M65.4846 620.46L73.0311 612.001L73.9189 603.965" stroke="black"/>
<path d="M155.492 619.98C157.973 621.083 160.978 619.743 162.204 616.986C163.43 614.23 162.412 611.101 159.931 609.998C157.451 608.894 154.446 610.235 153.22 612.991C151.994 615.747 153.011 618.876 155.492 619.98Z" fill="#FF6584"/>
<path d="M34.4625 452.68C32.2114 453.376 32.0531 449.265 34.3073 448.645C36.5582 447.948 36.7166 452.06 34.4625 452.68Z" fill="#E6E6E6"/>
<path d="M192.991 592.202C195.748 593.428 198.976 592.187 200.202 589.43C201.428 586.674 200.187 583.445 197.43 582.22C194.674 580.994 191.446 582.235 190.22 584.991C188.994 587.747 190.235 590.976 192.991 592.202Z" fill="#F2F2F2"/>
<path d="M3.19548 652.109C0.561815 652.211 -0.524516 648.698 2.12969 648.661C4.76321 648.559 5.84955 652.073 3.19548 652.109Z" fill="#E6E6E6"/>
<path d="M140.991 489.203C143.747 490.429 146.876 489.412 147.98 486.931C149.083 484.45 147.743 481.446 144.986 480.22C142.23 478.994 139.101 480.011 137.997 482.492C136.894 484.973 138.234 487.978 140.991 489.203Z" fill="#3F3D56"/>
<path d="M178.991 471.202C181.748 472.428 184.976 471.187 186.202 468.43C187.428 465.674 186.187 462.445 183.43 461.22C180.674 459.994 177.446 461.235 176.22 463.991C174.994 466.747 176.235 469.976 178.991 471.202Z" fill="#3F3D56"/>
<path d="M1034.27 352.178L1034.25 362.678C1031.32 360.767 1027.17 362.176 1025.56 365.635C1023.94 369.093 1025.14 373.975 1028.08 375.876C1026.28 378.315 1023.14 378.35 1020.39 378.439C1017.64 378.527 1014.4 379.259 1013.28 382.219C1012.39 384.596 1013.38 387.488 1015.04 389.209C1016.69 390.93 1018.87 391.747 1020.98 392.519C1016.42 394.406 1013.39 400.411 1014.15 406.027C1014.92 411.643 1019.4 416.23 1024.22 416.346C1019.74 418.67 1017.43 425.549 1019.35 430.856C1021.28 436.207 1026.34 438.891 1031.08 440.525C1043.14 444.703 1056.17 445.21 1068.55 441.983C1073.28 440.744 1077.99 438.912 1081.89 435.518C1085.78 432.123 1088.78 426.966 1089.09 421.272C1086.88 427.594 1090.8 435.11 1096.14 437.807C1101.47 440.504 1107.61 439.528 1113.23 437.801C1120.7 435.503 1128.61 431.144 1131.48 422.7C1132.9 418.52 1132.88 413.881 1132.83 409.378L1132.75 400.648C1132.71 397.124 1132.67 393.536 1131.75 390.183C1130.82 386.829 1128.88 383.683 1126.07 382.457C1128.02 379.8 1130.02 377.034 1130.87 373.67C1131.73 370.307 1131.11 366.158 1128.65 364.184C1125.51 361.673 1121.03 363.634 1117.59 361.734C1114.29 359.906 1112.99 355.169 1110.27 352.308C1109.16 351.099 1107.72 350.242 1106.13 349.842C1104.54 349.443 1102.87 349.519 1101.31 350.06C1098.27 351.198 1095.83 354.32 1095.11 357.982C1094.48 361.19 1095.11 364.546 1094.93 367.833C1094.76 371.12 1093.32 374.805 1090.57 375.421C1087.26 376.165 1084.59 371.96 1084 368.048C1083.41 364.135 1083.93 359.948 1082.61 356.291C1081.05 351.975 1076.82 349.245 1072.9 350.021C1068.97 350.797 1065.73 355.003 1065.45 359.682C1065.23 363.508 1066.58 368.079 1064.23 370.729C1061.74 373.531 1057.4 371.104 1055.69 367.584C1053.98 364.064 1053.71 359.785 1052.06 356.228C1050.39 352.616 1047.28 349.976 1043.84 349.249C1042.08 348.912 1040.26 349.026 1038.55 349.581C1036.84 350.136 1035.3 351.113 1034.07 352.422" fill="#E6E6E6"/>
<path d="M1108.17 355.905L1098.14 356.114C1096.61 356.182 1095.11 355.745 1093.86 354.871C1092.78 354.046 1092.3 352.939 1092.54 351.832L1094.66 341.848C1095.06 339.965 1097.38 338.556 1100.17 338.498L1105.71 338.383C1108.5 338.325 1110.85 339.637 1111.3 341.503L1113.66 351.393C1113.93 352.49 1113.47 353.617 1112.42 354.486C1111.19 355.411 1109.7 355.91 1108.17 355.905V355.905Z" fill="#3F3D56"/>
<path d="M1102.07 207.397C1096.23 207.615 1091.46 218.113 1091.45 222.194L1091.43 229.583L1112.58 228.81L1112.6 221.421C1112.62 217.339 1107.91 207.188 1102.07 207.397Z" fill="#3F3D56"/>
<path d="M1015.46 272.318C1015.15 272.179 1014.87 271.967 1014.66 271.701C1014.44 271.435 1014.3 271.122 1014.23 270.789C1014.16 270.457 1014.18 270.114 1014.27 269.79C1014.37 269.465 1014.54 269.17 1014.78 268.928C1014.97 268.73 1015.2 268.572 1015.46 268.463C1015.71 268.355 1015.99 268.298 1016.27 268.296L1126.92 267.1C1127.19 267.097 1127.47 267.148 1127.73 267.251C1127.99 267.354 1128.23 267.507 1128.43 267.7C1128.63 267.893 1128.79 268.123 1128.91 268.377C1129.02 268.631 1129.08 268.904 1129.09 269.18C1129.1 269.738 1128.89 270.275 1128.5 270.674C1128.11 271.073 1127.57 271.3 1127.01 271.307L1127.01 271.307L1016.36 272.502C1016.05 272.507 1015.74 272.444 1015.46 272.318V272.318Z" fill="#3F3D56"/>
<path d="M1118.18 235.885L1086.49 236.407L1088.26 343.384L1119.94 342.861L1118.18 235.885Z" fill="#E6E6E6"/>
<path d="M1069.14 80.3397C1063.12 80.3542 1058.56 90.3919 1058.68 94.3569L1058.91 101.535L1080.72 101.5L1080.5 94.3211C1080.37 90.3561 1075.17 80.3344 1069.14 80.3397Z" fill="#3F3D56"/>
<path d="M1078.84 355.105L1069.31 355.293C1067.86 355.356 1066.44 354.941 1065.25 354.111C1064.23 353.328 1063.77 352.278 1063.99 351.229L1066 341.769C1066.38 339.984 1068.58 338.651 1071.22 338.599L1076.49 338.495C1079.14 338.443 1081.37 339.689 1081.79 341.458L1084.05 350.834C1084.3 351.874 1083.87 352.942 1082.87 353.764C1081.71 354.64 1080.29 355.111 1078.84 355.105V355.105Z" fill="#3F3D56"/>
<path d="M1048.56 355.986L1039.03 356.173C1037.58 356.236 1036.16 355.821 1034.97 354.991C1033.95 354.209 1033.49 353.159 1033.71 352.11L1035.72 342.649C1036.1 340.865 1038.29 339.531 1040.94 339.479L1046.21 339.375C1048.85 339.323 1051.09 340.57 1051.51 342.338L1053.77 351.715C1054.02 352.754 1053.59 353.822 1052.59 354.644C1051.42 355.521 1050.01 355.992 1048.56 355.986V355.986Z" fill="#3F3D56"/>
<path d="M1085.85 126.755L1054.16 127.277L1057.73 343.518L1089.41 342.995L1085.85 126.755Z" fill="#E6E6E6"/>
<path d="M1072.12 230.914L1072.08 223.111L1074.11 223.077L1074.15 230.855L1074.41 344.219L1072.37 344.259" fill="#3F3D56"/>
<path d="M1107.34 240.6L1107.24 232.77L1109.31 232.752L1109.41 240.558L1110.57 354.322L1108.5 354.345" fill="#3F3D56"/>
<path d="M1091.85 146.392L1049.14 147.406C1048.47 142.845 1049.82 121.585 1053.75 116.847L1054.9 111.176L1084.39 110.477L1085.83 116.015C1090 119.681 1091.8 141.012 1091.85 146.392Z" fill="#E6E6E6"/>
<path d="M1085.36 111.835L1054.08 112.244C1052.93 112.259 1051.98 111.643 1051.96 110.868C1051.96 110.756 1051.98 110.645 1052.02 110.539L1056.99 95.7345C1057.2 95.1005 1058.04 94.6447 1059 94.632L1079.75 94.3608C1080.71 94.3482 1081.56 94.7821 1081.8 95.4102L1087.36 110.077C1087.65 110.827 1086.97 111.594 1085.85 111.79C1085.69 111.818 1085.53 111.833 1085.36 111.835V111.835Z" fill="#E6E6E6"/>
<path d="M1056.04 230.581C1055.76 230.46 1055.5 230.305 1055.26 230.122C1054.92 229.875 1054.64 229.554 1054.44 229.182C1054.24 228.81 1054.13 228.398 1054.11 227.976L1053.47 187.546C1053.45 185.872 1055.1 184.482 1057.16 184.447L1084.63 183.975C1086.69 183.94 1088.39 185.273 1088.41 186.947L1089.05 227.377C1089.05 227.799 1088.95 228.215 1088.76 228.594C1088.58 228.972 1088.31 229.303 1087.97 229.561C1087.23 230.151 1086.31 230.474 1085.37 230.476L1057.89 230.947C1057.25 230.962 1056.62 230.837 1056.04 230.581Z" fill="#3F3D56"/>
<path d="M1057.02 236.515L1025.33 237.037L1027.1 344.013L1058.78 343.491L1057.02 236.515Z" fill="#E6E6E6"/>
<path d="M1074.63 108.643L1065.39 108.952C1063.6 109.012 1062.15 106.944 1062.15 104.344C1062.15 101.744 1063.6 99.5802 1065.39 99.5206L1074.63 99.2119C1076.42 99.1523 1077.87 101.22 1077.87 103.82C1077.87 106.42 1076.42 108.584 1074.63 108.643Z" fill="#3F3D56"/>
<path d="M1041.15 207.805C1035.08 207.922 1030.32 218.417 1030.37 222.531L1030.48 229.978L1052.46 229.572L1052.35 222.126C1052.29 218.012 1047.22 207.698 1041.15 207.805Z" fill="#3F3D56"/>
<path d="M968.972 151.998C966.721 152.695 966.562 148.583 968.816 147.963C971.067 147.267 971.226 151.378 968.972 151.998Z" fill="#E6E6E6"/>
<path d="M1167.14 192.404C1164.5 192.506 1163.42 188.993 1166.07 188.956C1168.71 188.854 1169.79 192.368 1167.14 192.404Z" fill="#E6E6E6"/>
<path d="M1029.42 169.316C1027.17 170.013 1027.01 165.901 1029.27 165.281C1031.52 164.585 1031.68 168.696 1029.42 169.316Z" fill="#E6E6E6"/>
<path d="M924.579 251.818C922.328 252.515 922.17 248.404 924.424 247.784C926.675 247.087 926.833 251.199 924.579 251.818Z" fill="#E6E6E6"/>
<path d="M1112.71 65.3747C1110.62 65.7171 1110.08 62.4491 1112.19 62.1678C1114.28 61.8255 1114.81 65.0934 1112.71 65.3747Z" fill="#E6E6E6"/>
<path d="M1004.33 80.5459C1002.24 80.8882 1001.71 77.6202 1003.81 77.3389C1005.9 76.9966 1006.44 80.2646 1004.33 80.5459Z" fill="#E6E6E6"/>
<path d="M1133.59 119.749L1132.63 119.042L1133.33 118.081L1132.69 117.61L1131.98 118.571L1131.02 117.864L1130.55 118.505L1131.51 119.212L1130.81 120.172L1131.45 120.643L1132.15 119.682L1133.12 120.389L1133.59 119.749Z" fill="#E6E6E6"/>
<path d="M912.852 132.161L911.927 131.377L912.791 130.061L912.173 129.538L911.309 130.854L910.382 130.069L909.806 130.946L910.732 131.731L909.868 133.047L910.485 133.57L911.35 132.254L912.276 133.038L912.852 132.161Z" fill="#E6E6E6"/>
<path d="M1118.53 279.483C1117.44 279.496 1116.39 279.08 1115.61 278.325C1114.82 277.57 1114.37 276.539 1114.35 275.457L1114.12 263.939C1114.1 262.858 1114.51 261.816 1115.26 261.042C1116.02 260.268 1117.05 259.825 1118.14 259.811C1119.23 259.797 1120.28 260.213 1121.06 260.967C1121.85 261.721 1122.3 262.751 1122.32 263.832L1122.56 275.351C1122.58 276.432 1122.16 277.475 1121.41 278.25C1120.66 279.024 1119.62 279.468 1118.53 279.483V279.483Z" fill="#3F3D56"/>
<path d="M1025.69 281.236C1024.6 281.249 1023.55 280.833 1022.76 280.078C1021.98 279.323 1021.53 278.292 1021.5 277.21L1021.27 265.692C1021.25 264.611 1021.66 263.569 1022.42 262.795C1023.17 262.021 1024.21 261.578 1025.3 261.564C1026.38 261.55 1027.43 261.966 1028.22 262.72C1029 263.474 1029.46 264.504 1029.48 265.585L1029.71 277.104C1029.73 278.185 1029.32 279.228 1028.57 280.003C1027.81 280.777 1026.78 281.221 1025.69 281.236Z" fill="#3F3D56"/>
<path d="M1120.94 255.731L1084.37 256.335C1083.77 252.475 1084.8 234.505 1088.14 230.521L1091.05 225.7L1113.09 224.869L1115.61 230.007C1122.11 230.609 1124.19 248.302 1120.94 255.731Z" fill="#E6E6E6"/>
<path d="M1107.45 247.781L1098.09 247.904C1096.28 247.927 1094.76 245.211 1094.69 241.849C1094.62 238.488 1096.04 235.733 1097.84 235.71L1107.2 235.587C1109.01 235.564 1110.53 238.28 1110.6 241.641C1110.67 245.003 1109.25 247.758 1107.45 247.781Z" fill="#3F3D56"/>
<path d="M1033.38 237.517L1033.25 229.75L1035.32 229.739L1035.45 237.482L1037.02 350.319L1034.96 350.335" fill="#3F3D56"/>
<path d="M1059.82 256.049L1023.64 256.824C1020.25 252.553 1020.22 234.447 1027.48 231.047L1030.39 226.223L1052.2 225.289L1054.67 230.405C1058.2 233.506 1059.77 251.509 1059.82 256.049Z" fill="#E6E6E6"/>
<path d="M1046.76 246.961L1037.68 247.312C1035.93 247.38 1034.52 245.035 1034.53 242.085C1034.55 239.135 1035.98 236.68 1037.73 236.612L1046.81 236.262C1048.56 236.194 1049.98 238.539 1049.96 241.489C1049.95 244.438 1048.51 246.893 1046.76 246.961Z" fill="#3F3D56"/>
<path d="M921.261 113.254C946.621 124.532 976.421 112.893 987.821 87.2578C999.222 61.6227 987.906 31.6986 962.547 20.4206C937.187 9.14263 907.387 20.7814 895.986 46.4166C884.586 72.0517 895.902 101.976 921.261 113.254Z" fill="url(#paint0_radial_1_179)"/>
<path opacity="0.3" d="M1110.34 199.099L1174.83 129.175L1108.04 196.898C1107.81 197.023 1107.6 197.204 1107.45 197.425C1107.29 197.645 1107.19 197.899 1107.15 198.166C1107.11 198.433 1107.14 198.704 1107.23 198.958C1107.31 199.212 1107.46 199.441 1107.65 199.626C1107.84 199.81 1108.08 199.946 1108.33 200.021C1108.59 200.096 1108.86 200.108 1109.12 200.056C1109.39 200.005 1109.63 199.891 1109.85 199.725C1110.06 199.558 1110.23 199.344 1110.34 199.099L1110.34 199.099Z" fill="#F0F0F0"/>
<path d="M1180.73 270.493C1183.21 271.596 1186.21 270.256 1187.44 267.499C1188.67 264.743 1187.65 261.614 1185.17 260.511C1182.69 259.407 1179.68 260.748 1178.46 263.504C1177.23 266.261 1178.25 269.39 1180.73 270.493Z" fill="#FF6584"/>
<path d="M1153.46 413.799C1156.22 415.025 1159.45 413.784 1160.68 411.028C1161.9 408.271 1160.66 405.043 1157.9 403.817C1155.15 402.591 1151.92 403.832 1150.69 406.589C1149.47 409.345 1150.71 412.573 1153.46 413.799Z" fill="#F2F2F2"/>
<path d="M960.06 214.203C962.817 215.429 965.946 214.412 967.049 211.931C968.152 209.45 966.812 206.445 964.056 205.219C961.299 203.993 958.17 205.011 957.067 207.491C955.964 209.972 957.304 212.977 960.06 214.203Z" fill="#3F3D56"/>
<path d="M1119.11 292.108L1137.7 306.961L1139.22 338.281L1117.03 329.444L1119.11 292.108Z" fill="#E6E6E6"/>
<path d="M1087.17 234.865L1093.65 251.448L1095.08 327.304L1087.62 329.519L1087.17 234.865Z" fill="#CCCCCC"/>
<path d="M1057.34 234.747L1051.14 251.139L1051.07 326.415L1058.6 328.693L1057.34 234.747Z" fill="#CCCCCC"/>
<path d="M1027.98 299.41L1008.4 312.518L1004.99 342.987L1027.84 336.023L1027.98 299.41Z" fill="#E6E6E6"/>
<path d="M1121.7 354.241C1115.91 351.662 1109.65 348.618 1102.93 345.108C1068.19 326.949 1025.37 298.496 982.38 264.992C939.387 231.488 901.349 196.934 875.274 167.697C862.572 153.455 853.395 141.239 847.998 131.389C842.283 120.961 841.055 113.54 844.347 109.334C850.76 101.139 872.126 108.224 888.921 115.61L888.33 116.954C865.267 106.81 850.06 104.426 845.51 110.24C839.714 117.645 850.964 138.232 876.373 166.723C902.392 195.896 940.36 230.385 983.285 263.836C1026.21 297.287 1068.94 325.688 1103.61 343.807C1137.47 361.503 1160.21 367.405 1166 359.999C1170.82 353.851 1163.92 338.573 1146.58 316.98L1147.73 316.064C1160.33 331.754 1173.92 352.27 1167.17 360.906C1163.87 365.112 1156.36 365.722 1144.84 362.716C1138.27 361.003 1130.53 358.166 1121.7 354.241Z" fill="#3F3D56"/>
<defs>
<radialGradient id="paint0_radial_1_179" cx="0" cy="0" r="1" gradientUnits="userSpaceOnUse" gradientTransform="translate(941.904 66.8372) rotate(113.976) scale(50.7997 50.2535)">
<stop stop-color="#FF7A00"/>
<stop offset="1" stop-color="#312623" stop-opacity="0"/>
</radialGradient>
</defs>
</svg>
