<svg width="1440" height="1024" viewBox="0 0 1440 1024" fill="none" xmlns="http://www.w3.org/2000/svg">
<g clip-path="url(#clip0_1_6)">
<rect width="1440" height="1024" fill="#111111"/>
<path d="M973.753 -1491L974.652 116.611V817.261L973.798 2424" stroke="#FF6C37" stroke-width="0.6" stroke-linecap="round" stroke-linejoin="round"/>
<path d="M365.485 2424L866.045 817.261V116.611L363.899 -1491" stroke="#FF6C37" stroke-width="0.6" stroke-linecap="round" stroke-linejoin="round"/>
<path d="M1584.09 -1491L1083.75 116.611V817.261L1582.59 2424" stroke="#FF6C37" stroke-width="0.6" stroke-linecap="round" stroke-linejoin="round"/>
<path d="M-244.479 1446.25L538.31 817.264V116.609L-244.252 -510.57" stroke="#FF6C37" stroke-width="0.6" stroke-linecap="round" stroke-linejoin="round"/>
<path d="M-244.479 956.485L101.963 817.261V116.611L-244.479 -22.2499" stroke="#FF6C37" stroke-width="0.6" stroke-linecap="round" stroke-linejoin="round"/>
<path d="M-244.479 1026.46L211.048 817.26V116.61L-244.479 -92.0531" stroke="#FF6C37" stroke-width="0.6" stroke-linecap="round" stroke-linejoin="round"/>
<path d="M-244.479 1119.74L320.133 817.259V116.609L-244.479 -185.113" stroke="#FF6C37" stroke-width="0.6" stroke-linecap="round" stroke-linejoin="round"/>
<path d="M-244.479 1250.37L429.229 817.264V116.608L-244.479 -315.378" stroke="#FF6C37" stroke-width="0.6" stroke-linecap="round" stroke-linejoin="round"/>
<path d="M-244.479 1772.64L647.394 817.264V116.608L-244.479 -836.319" stroke="#FF6C37" stroke-width="0.6" stroke-linecap="round" stroke-linejoin="round"/>
<path d="M-243.29 2424L756.969 817.261V116.611L-244 -1487.13" stroke="#FF6C37" stroke-width="0.6" stroke-linecap="round" stroke-linejoin="round"/>
<path d="M2193.99 -511.449L1411.03 116.609L1411.01 817.259L2193.8 1446.78" stroke="#FF6C37" stroke-width="0.6" stroke-linecap="round" stroke-linejoin="round"/>
<path d="M2193.99 -837.628L1301.93 116.608V817.264L2193.8 1773.73" stroke="#FF6C37" stroke-width="0.6" stroke-linecap="round" stroke-linejoin="round"/>
<path d="M2193.8 -1489.99L1192.83 116.612V817.262L2191.38 2424" stroke="#FF6C37" stroke-width="0.6" stroke-linecap="round" stroke-linejoin="round"/>
<path d="M2193.81 116.649H-244.479" stroke="#FF6C37" stroke-width="0.6" stroke-linecap="round" stroke-linejoin="round"/>
<path d="M2193.81 20.9667H-244.479" stroke="#FF6C37" stroke-width="0.6" stroke-linecap="round" stroke-linejoin="round"/>
<path d="M2193.81 64.9044H-244.479" stroke="#FF6C37" stroke-width="0.6" stroke-linecap="round" stroke-linejoin="round"/>
<path d="M2193.81 44.0771H-244.479" stroke="#FF6C37" stroke-width="0.6" stroke-linecap="round" stroke-linejoin="round"/>
<path d="M2193.81 83.7613H-244.479" stroke="#FF6C37" stroke-width="0.6" stroke-linecap="round" stroke-linejoin="round"/>
<path d="M2193.81 100.945H-244.479" stroke="#FF6C37" stroke-width="0.6" stroke-linecap="round" stroke-linejoin="round"/>
<path d="M-244.479 817.261H2193.81" stroke="#FF6C37" stroke-width="0.6" stroke-linecap="round" stroke-linejoin="round"/>
<path d="M-244.479 642.114H2193.81" stroke="#FF6C37" stroke-width="0.6" stroke-linecap="round" stroke-linejoin="round"/>
<path d="M-244.479 466.966H2193.81" stroke="#FF6C37" stroke-width="0.6" stroke-linecap="round" stroke-linejoin="round"/>
<path d="M-244.479 291.797H2193.81" stroke="#FF6C37" stroke-width="0.6" stroke-linecap="round" stroke-linejoin="round"/>
<path d="M-244.479 116.649H2193.81" stroke="#FF6C37" stroke-width="0.6" stroke-linecap="round" stroke-linejoin="round"/>
<path d="M2193.27 817.261H-244.479" stroke="#FF6C37" stroke-width="0.6" stroke-linecap="round" stroke-linejoin="round"/>
<path d="M2193.81 833.004H-244.479" stroke="#FF6C37" stroke-width="0.6" stroke-linecap="round" stroke-linejoin="round"/>
<path d="M2193.81 850.227H-244.479" stroke="#FF6C37" stroke-width="0.6" stroke-linecap="round" stroke-linejoin="round"/>
<path d="M2193.81 869.157H-244.479" stroke="#FF6C37" stroke-width="0.6" stroke-linecap="round" stroke-linejoin="round"/>
<path d="M2193.81 890.026H-244.479" stroke="#FF6C37" stroke-width="0.6" stroke-linecap="round" stroke-linejoin="round"/>
<path d="M2193.81 913.192H-244.479" stroke="#FF6C37" stroke-width="0.6" stroke-linecap="round" stroke-linejoin="round"/>
<path d="M2193.81 939.034H-244.479" stroke="#FF6C37" stroke-width="0.6" stroke-linecap="round" stroke-linejoin="round"/>
<path d="M2193.81 968.068H-244.479" stroke="#FF6C37" stroke-width="0.6" stroke-linecap="round" stroke-linejoin="round"/>
<path d="M2193.81 1000.88H-244.479" stroke="#FF6C37" stroke-width="0.6" stroke-linecap="round" stroke-linejoin="round"/>
</g>
<defs>
<clipPath id="clip0_1_6">
<rect width="1440" height="1024" fill="white"/>
</clipPath>
</defs>
</svg>
