<svg width="508" height="76" viewBox="0 0 508 76" fill="none" xmlns="http://www.w3.org/2000/svg">
<g filter="url(#filter0_d_1_149)">
<path d="M60.2136 2.88L49.2336 45H36.8136L30.0936 17.28L23.1336 45H10.7136L0.0335999 2.88H11.0136L17.0736 33.54L24.5736 2.88H35.8536L43.0536 33.54L49.1736 2.88H60.2136ZM97.3191 27.72C97.3191 28.68 97.2591 29.68 97.1391 30.72H73.9191C74.0791 32.8 74.7391 34.4 75.8991 35.52C77.0991 36.6 78.5591 37.14 80.2791 37.14C82.8391 37.14 84.6191 36.06 85.6191 33.9H96.5391C95.9791 36.1 94.9591 38.08 93.4791 39.84C92.0391 41.6 90.2191 42.98 88.0191 43.98C85.8191 44.98 83.3591 45.48 80.6391 45.48C77.3591 45.48 74.4391 44.78 71.8791 43.38C69.3191 41.98 67.3191 39.98 65.8791 37.38C64.4391 34.78 63.7191 31.74 63.7191 28.26C63.7191 24.78 64.4191 21.74 65.8191 19.14C67.2591 16.54 69.2591 14.54 71.8191 13.14C74.3791 11.74 77.3191 11.04 80.6391 11.04C83.8791 11.04 86.7591 11.72 89.2791 13.08C91.7991 14.44 93.7591 16.38 95.1591 18.9C96.5991 21.42 97.3191 24.36 97.3191 27.72ZM86.8191 25.02C86.8191 23.26 86.2191 21.86 85.0191 20.82C83.8191 19.78 82.3191 19.26 80.5191 19.26C78.7991 19.26 77.3391 19.76 76.1391 20.76C74.9791 21.76 74.2591 23.18 73.9791 25.02H86.8191ZM113.392 0.599999V45H103.132V0.599999H113.392ZM119.187 28.26C119.187 24.78 119.887 21.74 121.287 19.14C122.727 16.54 124.707 14.54 127.227 13.14C129.787 11.74 132.707 11.04 135.987 11.04C140.187 11.04 143.687 12.14 146.487 14.34C149.327 16.54 151.187 19.64 152.067 23.64H141.147C140.227 21.08 138.447 19.8 135.807 19.8C133.927 19.8 132.427 20.54 131.307 22.02C130.187 23.46 129.627 25.54 129.627 28.26C129.627 30.98 130.187 33.08 131.307 34.56C132.427 36 133.927 36.72 135.807 36.72C138.447 36.72 140.227 35.44 141.147 32.88H152.067C151.187 36.8 149.327 39.88 146.487 42.12C143.647 44.36 140.147 45.48 135.987 45.48C132.707 45.48 129.787 44.78 127.227 43.38C124.707 41.98 122.727 39.98 121.287 37.38C119.887 34.78 119.187 31.74 119.187 28.26ZM173.195 45.48C169.915 45.48 166.955 44.78 164.315 43.38C161.715 41.98 159.655 39.98 158.135 37.38C156.655 34.78 155.915 31.74 155.915 28.26C155.915 24.82 156.675 21.8 158.195 19.2C159.715 16.56 161.795 14.54 164.435 13.14C167.075 11.74 170.035 11.04 173.315 11.04C176.595 11.04 179.555 11.74 182.195 13.14C184.835 14.54 186.915 16.56 188.435 19.2C189.955 21.8 190.715 24.82 190.715 28.26C190.715 31.7 189.935 34.74 188.375 37.38C186.855 39.98 184.755 41.98 182.075 43.38C179.435 44.78 176.475 45.48 173.195 45.48ZM173.195 36.6C175.155 36.6 176.815 35.88 178.175 34.44C179.575 33 180.275 30.94 180.275 28.26C180.275 25.58 179.595 23.52 178.235 22.08C176.915 20.64 175.275 19.92 173.315 19.92C171.315 19.92 169.655 20.64 168.335 22.08C167.015 23.48 166.355 25.54 166.355 28.26C166.355 30.94 166.995 33 168.275 34.44C169.595 35.88 171.235 36.6 173.195 36.6ZM239.278 11.16C243.438 11.16 246.738 12.42 249.178 14.94C251.658 17.46 252.898 20.96 252.898 25.44V45H242.698V26.82C242.698 24.66 242.118 23 240.958 21.84C239.838 20.64 238.278 20.04 236.278 20.04C234.278 20.04 232.698 20.64 231.538 21.84C230.418 23 229.858 24.66 229.858 26.82V45H219.658V26.82C219.658 24.66 219.078 23 217.918 21.84C216.798 20.64 215.238 20.04 213.238 20.04C211.238 20.04 209.658 20.64 208.498 21.84C207.378 23 206.818 24.66 206.818 26.82V45H196.558V11.52H206.818V15.72C207.858 14.32 209.218 13.22 210.898 12.42C212.578 11.58 214.478 11.16 216.598 11.16C219.118 11.16 221.358 11.7 223.318 12.78C225.318 13.86 226.878 15.4 227.998 17.4C229.158 15.56 230.738 14.06 232.738 12.9C234.738 11.74 236.918 11.16 239.278 11.16ZM292.034 27.72C292.034 28.68 291.974 29.68 291.854 30.72H268.634C268.794 32.8 269.454 34.4 270.614 35.52C271.814 36.6 273.274 37.14 274.994 37.14C277.554 37.14 279.334 36.06 280.334 33.9H291.254C290.694 36.1 289.674 38.08 288.194 39.84C286.754 41.6 284.934 42.98 282.734 43.98C280.534 44.98 278.074 45.48 275.354 45.48C272.074 45.48 269.154 44.78 266.594 43.38C264.034 41.98 262.034 39.98 260.594 37.38C259.154 34.78 258.434 31.74 258.434 28.26C258.434 24.78 259.134 21.74 260.534 19.14C261.974 16.54 263.974 14.54 266.534 13.14C269.094 11.74 272.034 11.04 275.354 11.04C278.594 11.04 281.474 11.72 283.994 13.08C286.514 14.44 288.474 16.38 289.874 18.9C291.314 21.42 292.034 24.36 292.034 27.72ZM281.534 25.02C281.534 23.26 280.934 21.86 279.734 20.82C278.534 19.78 277.034 19.26 275.234 19.26C273.514 19.26 272.054 19.76 270.854 20.76C269.694 21.76 268.974 23.18 268.694 25.02H281.534ZM336.461 23.4C338.901 23.92 340.861 25.14 342.341 27.06C343.821 28.94 344.561 31.1 344.561 33.54C344.561 37.06 343.321 39.86 340.841 41.94C338.401 43.98 334.981 45 330.581 45H310.961V2.88H329.921C334.201 2.88 337.541 3.86 339.941 5.82C342.381 7.78 343.601 10.44 343.601 13.8C343.601 16.28 342.941 18.34 341.621 19.98C340.341 21.62 338.621 22.76 336.461 23.4ZM321.221 19.92H327.941C329.621 19.92 330.901 19.56 331.781 18.84C332.701 18.08 333.161 16.98 333.161 15.54C333.161 14.1 332.701 13 331.781 12.24C330.901 11.48 329.621 11.1 327.941 11.1H321.221V19.92ZM328.781 36.72C330.501 36.72 331.821 36.34 332.741 35.58C333.701 34.78 334.181 33.64 334.181 32.16C334.181 30.68 333.681 29.52 332.681 28.68C331.721 27.84 330.381 27.42 328.661 27.42H321.221V36.72H328.781ZM348.872 28.2C348.872 24.76 349.512 21.74 350.792 19.14C352.112 16.54 353.892 14.54 356.132 13.14C358.372 11.74 360.872 11.04 363.632 11.04C365.992 11.04 368.052 11.52 369.812 12.48C371.612 13.44 372.992 14.7 373.952 16.26V11.52H384.212V45H373.952V40.26C372.952 41.82 371.552 43.08 369.752 44.04C367.992 45 365.932 45.48 363.572 45.48C360.852 45.48 358.372 44.78 356.132 43.38C353.892 41.94 352.112 39.92 350.792 37.32C349.512 34.68 348.872 31.64 348.872 28.2ZM373.952 28.26C373.952 25.7 373.232 23.68 371.792 22.2C370.392 20.72 368.672 19.98 366.632 19.98C364.592 19.98 362.852 20.72 361.412 22.2C360.012 23.64 359.312 25.64 359.312 28.2C359.312 30.76 360.012 32.8 361.412 34.32C362.852 35.8 364.592 36.54 366.632 36.54C368.672 36.54 370.392 35.8 371.792 34.32C373.232 32.84 373.952 30.82 373.952 28.26ZM389.995 28.26C389.995 24.78 390.695 21.74 392.095 19.14C393.535 16.54 395.515 14.54 398.035 13.14C400.595 11.74 403.515 11.04 406.795 11.04C410.995 11.04 414.495 12.14 417.295 14.34C420.135 16.54 421.995 19.64 422.875 23.64H411.955C411.035 21.08 409.255 19.8 406.615 19.8C404.735 19.8 403.235 20.54 402.115 22.02C400.995 23.46 400.435 25.54 400.435 28.26C400.435 30.98 400.995 33.08 402.115 34.56C403.235 36 404.735 36.72 406.615 36.72C409.255 36.72 411.035 35.44 411.955 32.88H422.875C421.995 36.8 420.135 39.88 417.295 42.12C414.455 44.36 410.955 45.48 406.795 45.48C403.515 45.48 400.595 44.78 398.035 43.38C395.515 41.98 393.535 39.98 392.095 37.38C390.695 34.78 389.995 31.74 389.995 28.26ZM449.223 45L439.023 30.96V45H428.763V0.599999H439.023V25.14L449.163 11.52H461.823L447.903 28.32L461.943 45H449.223ZM471.053 45.48C469.253 45.48 467.773 44.96 466.613 43.92C465.493 42.84 464.933 41.52 464.933 39.96C464.933 38.36 465.493 37.02 466.613 35.94C467.773 34.86 469.253 34.32 471.053 34.32C472.813 34.32 474.253 34.86 475.373 35.94C476.533 37.02 477.113 38.36 477.113 39.96C477.113 41.52 476.533 42.84 475.373 43.92C474.253 44.96 472.813 45.48 471.053 45.48Z" fill="url(#paint0_linear_1_149)" shape-rendering="crispEdges"/>
</g>
<defs>
<filter id="filter0_d_1_149" x="0.0335999" y="0.600006" width="507.079" height="74.88" filterUnits="userSpaceOnUse" color-interpolation-filters="sRGB">
<feFlood flood-opacity="0" result="BackgroundImageFix"/>
<feColorMatrix in="SourceAlpha" type="matrix" values="0 0 0 0 0 0 0 0 0 0 0 0 0 0 0 0 0 0 127 0" result="hardAlpha"/>
<feOffset dx="30" dy="30"/>
<feComposite in2="hardAlpha" operator="out"/>
<feColorMatrix type="matrix" values="0 0 0 0 0 0 0 0 0 0 0 0 0 0 0 0 0 0 0.25 0"/>
<feBlend mode="normal" in2="BackgroundImageFix" result="effect1_dropShadow_1_149"/>
<feBlend mode="normal" in="SourceGraphic" in2="effect1_dropShadow_1_149" result="shape"/>
</filter>
<linearGradient id="paint0_linear_1_149" x1="239" y1="-59" x2="239" y2="106" gradientUnits="userSpaceOnUse">
<stop stop-color="#FF4400"/>
<stop offset="1" stop-color="#4D1704" stop-opacity="0.76"/>
</linearGradient>
</defs>
</svg>
